<svg fill="none" height="48" viewBox="0 0 188 48" width="188" xmlns="http://www.w3.org/2000/svg" xmlns:xlink="http://www.w3.org/1999/xlink"><filter id="a" color-interpolation-filters="sRGB" filterUnits="userSpaceOnUse" height="54" width="48" x="0" y="-3"><feFlood flood-opacity="0" result="BackgroundImageFix"/><feBlend in="SourceGraphic" in2="BackgroundImageFix" mode="normal" result="shape"/><feColorMatrix in="SourceAlpha" result="hardAlpha" type="matrix" values="0 0 0 0 0 0 0 0 0 0 0 0 0 0 0 0 0 0 127 0"/><feOffset dy="-3"/><feGaussianBlur stdDeviation="1.5"/><feComposite in2="hardAlpha" k2="-1" k3="1" operator="arithmetic"/><feColorMatrix type="matrix" values="0 0 0 0 0 0 0 0 0 0 0 0 0 0 0 0 0 0 0.1 0"/><feBlend in2="shape" mode="normal" result="effect1_innerShadow_3046_38753"/><feColorMatrix in="SourceAlpha" result="hardAlpha" type="matrix" values="0 0 0 0 0 0 0 0 0 0 0 0 0 0 0 0 0 0 127 0"/><feOffset dy="3"/><feGaussianBlur stdDeviation="1.5"/><feComposite in2="hardAlpha" k2="-1" k3="1" operator="arithmetic"/><feColorMatrix type="matrix" values="0 0 0 0 1 0 0 0 0 1 0 0 0 0 1 0 0 0 0.1 0"/><feBlend in2="effect1_innerShadow_3046_38753" mode="normal" result="effect2_innerShadow_3046_38753"/><feColorMatrix in="SourceAlpha" result="hardAlpha" type="matrix" values="0 0 0 0 0 0 0 0 0 0 0 0 0 0 0 0 0 0 127 0"/><feMorphology in="SourceAlpha" operator="erode" radius="1" result="effect3_innerShadow_3046_38753"/><feOffset/><feComposite in2="hardAlpha" k2="-1" k3="1" operator="arithmetic"/><feColorMatrix type="matrix" values="0 0 0 0 0.0627451 0 0 0 0 0.0941176 0 0 0 0 0.156863 0 0 0 0.24 0"/><feBlend in2="effect2_innerShadow_3046_38753" mode="normal" result="effect3_innerShadow_3046_38753"/></filter><filter id="b" color-interpolation-filters="sRGB" filterUnits="userSpaceOnUse" height="44" width="38" x="5" y="5"><feFlood flood-opacity="0" result="BackgroundImageFix"/><feColorMatrix in="SourceAlpha" result="hardAlpha" type="matrix" values="0 0 0 0 0 0 0 0 0 0 0 0 0 0 0 0 0 0 127 0"/><feMorphology in="SourceAlpha" operator="erode" radius="2" result="effect1_dropShadow_3046_38753"/><feOffset dy="3"/><feGaussianBlur stdDeviation="3"/><feComposite in2="hardAlpha" operator="out"/><feColorMatrix type="matrix" values="0 0 0 0 0.141176 0 0 0 0 0.141176 0 0 0 0 0.141176 0 0 0 0.1 0"/><feBlend in2="BackgroundImageFix" mode="normal" result="effect1_dropShadow_3046_38753"/><feBlend in="SourceGraphic" in2="effect1_dropShadow_3046_38753" mode="normal" result="shape"/></filter><linearGradient id="c" gradientUnits="userSpaceOnUse" x1="24" x2="26" y1=".000001" y2="48"><stop offset="0" stop-color="#fff" stop-opacity="0"/><stop offset="1" stop-color="#fff" stop-opacity=".12"/></linearGradient><linearGradient id="d" gradientUnits="userSpaceOnUse" x1="24.0002" x2="24.0002" y1="9.71429" y2="38.2857"><stop offset="0" stop-color="#fff" stop-opacity=".8"/><stop offset="1" stop-color="#fff" stop-opacity=".5"/></linearGradient><linearGradient id="e" gradientUnits="userSpaceOnUse" x1="24" x2="24" y1="0" y2="48"><stop offset="0" stop-color="#fff" stop-opacity=".12"/><stop offset="1" stop-color="#fff" stop-opacity="0"/></linearGradient><clipPath id="f"><rect height="48" rx="12" width="48"/></clipPath><g filter="url(#a)"><g clip-path="url(#f)"><rect fill="#6927da" height="48" rx="12" width="48"/><path d="m0 0h48v48h-48z" fill="url(#c)"/><g fill="url(#d)" filter="url(#b)"><path d="m23.7005 9.71429c-2.6.00001-4.7 2.07451-4.7 4.64291 0 2.5486 2.1 4.623 4.68 4.6428-.64-.0198-1.14-.5334-1.14-1.1657 0-.6322.52-1.1656 1.18-1.1656h11.76c1.94 0 3.52-1.5608 3.52-3.4772s-1.58-3.47721-3.52-3.47721z"/><path d="m17.9861 19c-2.6 0-4.7 2.0745-4.7 4.6428 0 2.5487 2.1 4.6231 4.68 4.6429-.64-.0198-1.14-.5334-1.14-1.1657 0-.6322.52-1.1656 1.1801-1.1656h11.7599c1.94 0 3.52-1.5608 3.52-3.4772s-1.58-3.4772-3.52-3.4772z"/><path d="m14.0357 28.2857c-2.7857 0-5.0357 2.2341-5.0357 5 0 2.7447 2.25 4.9787 5.0143 5-.6857-.0213-1.2214-.5744-1.2214-1.2553s.5571-1.2553 1.2643-1.2553h12.6c2.0785 0 3.7714-1.6809 3.7714-3.7447s-1.6929-3.7447-3.7714-3.7447z"/></g></g><rect height="46" rx="11" stroke="url(#e)" stroke-width="2" width="46" x="1" y="1"/></g><g fill="#0A0D12"><path clip-rule="evenodd" d="m93.3468 12.8c-1.2351 0-2.171.8634-2.171 2.09 0 1.2481.9302 2.144 2.171 2.144 1.2371 0 2.198-.8924 2.198-2.144 0-1.2301-.9666-2.09-2.198-2.09z" fill-rule="evenodd"/><path clip-rule="evenodd" d="m139.836 12.8c-1.235 0-2.171.8634-2.171 2.09 0 1.2481.931 2.144 2.171 2.144 1.237 0 2.198-.8924 2.198-2.144 0-1.2301-.966-2.09-2.198-2.09z" fill-rule="evenodd"/><path d="m95.4246 18.69h-4.104v14.31h4.104z"/><path d="m60 13.83h13.365v3.483h-9.234v4.374h8.91v3.402h-8.91v4.428h9.45v3.483h-13.581z"/><path clip-rule="evenodd" d="m75.4729 37.05v-18.36h3.915l.081 2.106c.783-1.566 2.268-2.43 4.266-2.43 4.05 0 6.102 3.267 6.102 7.479s-2.052 7.479-6.102 7.479c-1.863 0-3.321-.81-4.158-2.322v6.048zm3.834-11.205c0 2.349.999 4.374 3.159 4.374 2.187 0 3.186-2.025 3.186-4.374 0-2.322-1.053-4.374-3.186-4.374-2.16 0-3.159 2.052-3.159 4.374z" fill-rule="evenodd"/><path d="m107.205 24.171c-.243-1.728-1.377-2.673-2.808-2.673-2.025 0-3.159 1.593-3.159 4.347s1.134 4.347 3.159 4.347c1.512 0 2.619-.945 2.862-2.808l4.212.162c-.378 3.564-3.267 5.778-7.074 5.778-4.4277 0-7.3437-2.943-7.3437-7.479s2.916-7.479 7.3437-7.479c3.699 0 6.615 2.133 6.993 5.616z"/><path d="m121.781 33h3.699v-14.31h-4.077v7.857c0 2.268-.891 3.537-2.565 3.537-1.647 0-2.133-1.269-2.133-3.537v-7.857h-4.104v9.207c0 3.321 1.809 5.427 4.887 5.427 1.836 0 3.429-.702 4.212-2.565z"/><path d="m127.948 18.69h3.888l.081 2.862c.567-1.917 1.647-2.862 3.456-2.862h1.296v3.051h-1.35c-2.349 0-3.267 1.08-3.267 3.294v7.965h-4.104z"/><path d="m141.914 18.69h-4.104v14.31h4.104z"/><path clip-rule="evenodd" d="m150.887 33.324c-4.428 0-7.344-2.943-7.344-7.479s2.916-7.479 7.344-7.479 7.344 2.943 7.344 7.479-2.916 7.479-7.344 7.479zm-3.159-7.479c0 2.754 1.134 4.347 3.159 4.347s3.159-1.593 3.159-4.347-1.134-4.347-3.159-4.347-3.159 1.593-3.159 4.347z" fill-rule="evenodd"/><path d="m168.824 33h3.699v-14.31h-4.077v7.857c0 2.268-.891 3.537-2.565 3.537-1.647 0-2.133-1.269-2.133-3.537v-7.857h-4.104v9.207c0 3.321 1.809 5.427 4.887 5.427 1.836 0 3.429-.702 4.212-2.565z"/><path d="m183.523 23.334c-.216-1.323-1.35-2.133-2.592-2.133-1.215 0-2.16.648-2.106 1.674.054 1.053 1.269 1.512 2.619 1.728 4.212.675 6.291 1.782 6.291 4.482 0 2.862-2.7 4.239-6.372 4.239-4.185 0-6.858-1.809-7.074-4.86l4.104-.216c.243 1.377 1.242 2.214 2.889 2.214 1.026 0 2.268-.432 2.268-1.458-.025-1.143-1.245-1.4019-2.536-1.6758-.081-.0172-.163-.0346-.245-.0522-3.942-.756-6.156-1.728-6.156-4.374 0-2.862 2.403-4.563 6.48-4.563 3.618 0 6.048 1.836 6.534 4.833z"/></g></svg>